<svg id="Layer_1" data-name="Layer 1" xmlns="http://www.w3.org/2000/svg" xmlns:xlink="http://www.w3.org/1999/xlink" viewBox="0 0 147.21 147.21"><defs><style>.cls-1,.cls-9{fill:none;}.cls-2{fill:#fff;}.cls-3{fill:#0077c8;}.cls-4{clip-path:url(#clip-path);}.cls-5{fill:#ecd0ad;}.cls-6{fill:#212121;}.cls-7{fill:#080908;}.cls-8{fill:#919192;}.cls-9{stroke:#fff;stroke-miterlimit:10;stroke-width:1.52px;}</style><clipPath id="clip-path" transform="translate(-1.63 -1.18)"><path class="cls-1" d="M109.45,50a51.39,51.39,0,0,0-4.37-8.64c-2.77-4-6.8-5.14-10.57-5.75-1.46-.24-37.58-.24-39.05,0-3.77.61-7.8,1.73-10.57,5.75A51.39,51.39,0,0,0,40.52,50c-1.23,2.86-2.58,6-2.6,9.52,0,1.09.39,2.64,1.28,2.88a31.66,31.66,0,0,0,6.93.58c3.34.14,6.67.2,10,.24,5.9.07,31.79.07,37.69,0,3.34,0,6.68-.1,10-.24a31.66,31.66,0,0,0,6.93-.58c.89-.24,1.28-1.79,1.28-2.88C112,56,110.68,52.86,109.45,50Z"/></clipPath></defs><circle class="cls-2" cx="73.61" cy="73.61" r="73.61"/><rect class="cls-3" x="104.6" y="94.48" width="16.07" height="21.95" rx="6.09"/><rect class="cls-3" x="25.57" y="94.48" width="16.07" height="21.95" rx="6.09"/><polygon class="cls-3" points="116.97 58.12 120.55 56.57 119.61 53.7 115.34 54.9 116.97 58.12"/><path class="cls-3" d="M127.24,50.47a13.44,13.44,0,0,0-3.89.28c-.88.22-2.47,1-2.74,2-.73,2.74.06,5.17,1.57,6.08,1.32.8,3.59.57,5,.27,2.37-.49,4.62-1.89,5.14-4.4.45-2.2-.45-3.7-2.67-4C128.91,50.6,128.08,50.51,127.24,50.47Z" transform="translate(-1.63 -1.18)"/><polygon class="cls-3" points="29.75 58.12 26.17 56.57 27.1 53.7 31.38 54.9 29.75 58.12"/><path class="cls-3" d="M120.79,61.56c-2.88-3.5-5.31-9.88-8.66-17.47s-8.66-10.94-14.73-11.4c-5.49-.41-39.34-.41-44.83,0-6.07.46-11.39,3.8-14.73,11.4s-5.78,14-8.66,17.47-7,11.69-6.38,23.24S21,103.33,43.46,103c19.66-.27,43.39-.27,63.05,0,22.49.3,20.06-6.69,20.66-18.23S123.68,65.05,120.79,61.56Z" transform="translate(-1.63 -1.18)"/><path class="cls-3" d="M22.73,50.47a13.39,13.39,0,0,1,3.89.28c.88.22,2.47,1,2.74,2,.73,2.74-.06,5.17-1.57,6.08-1.31.8-3.59.57-5,.27-2.37-.49-4.62-1.89-5.14-4.4-.45-2.2.45-3.7,2.67-4C21.06,50.6,21.89,50.51,22.73,50.47Z" transform="translate(-1.63 -1.18)"/><path class="cls-2" d="M109.45,50a51.39,51.39,0,0,0-4.37-8.64c-2.77-4-6.8-5.14-10.57-5.75-1.46-.24-37.58-.24-39.05,0-3.77.61-7.8,1.73-10.57,5.75A51.39,51.39,0,0,0,40.52,50c-1.23,2.86-2.58,6-2.6,9.52,0,1.09.39,2.64,1.28,2.88a31.66,31.66,0,0,0,6.93.58c3.34.14,6.67.2,10,.24,5.9.07,31.79.07,37.69,0,3.34,0,6.68-.1,10-.24a31.66,31.66,0,0,0,6.93-.58c.89-.24,1.28-1.79,1.28-2.88C112,56,110.68,52.86,109.45,50Z" transform="translate(-1.63 -1.18)"/><g class="cls-4"><polygon class="cls-5" points="87.06 71.51 87.87 86.43 89.31 86.43 89.31 71.51 87.06 71.51"/><polygon class="cls-6" points="86.03 86.19 86.21 86.92 88.9 86.56 89.02 86.83 89.31 86.83 89.31 86.51 89.31 86.19 89.31 85.47 86.03 86.19"/><polygon class="cls-5" points="92.86 71.51 92.05 86.43 90.61 86.43 90.61 71.51 92.86 71.51"/><polygon class="cls-6" points="93.89 86.19 93.71 86.92 91.01 86.56 90.89 86.83 90.61 86.83 90.61 86.51 90.61 86.19 90.61 85.47 93.89 86.19"/><polygon class="cls-7" points="96.82 75.94 83.75 75.94 83.05 69.67 97.47 69.67 96.82 75.94"/><path class="cls-8" d="M92.55,64.4a.33.33,0,0,1-.33.33.32.32,0,0,1-.33-.33.33.33,0,0,1,.33-.33A.33.33,0,0,1,92.55,64.4Z" transform="translate(-1.63 -1.18)"/><circle class="cls-8" cx="90.59" cy="66.41" r="0.33"/></g><ellipse class="cls-3" cx="56.34" cy="46.77" rx="15.9" ry="20.95"/><ellipse class="cls-3" cx="90.91" cy="46.77" rx="15.9" ry="20.95"/><ellipse class="cls-2" cx="56.14" cy="48.89" rx="14.28" ry="18.82"/><ellipse class="cls-2" cx="90.23" cy="48.89" rx="14.28" ry="18.82"/><ellipse class="cls-3" cx="55.84" cy="38.54" rx="7.14" ry="9.41"/><ellipse class="cls-3" cx="90.85" cy="38.41" rx="7.14" ry="9.41"/><ellipse class="cls-2" cx="54.03" cy="33.44" rx="4.73" ry="3.37"/><ellipse class="cls-2" cx="89.02" cy="32.8" rx="4.73" ry="3.37"/><circle class="cls-2" cx="33.63" cy="76.94" r="5.62"/><circle class="cls-2" cx="113.14" cy="76.94" r="5.62"/><ellipse class="cls-2" cx="72.74" cy="76.43" rx="8.71" ry="2.59"/><path class="cls-9" d="M46.42,83.85a40.45,40.45,0,0,0,57.19-2.14" transform="translate(-1.63 -1.18)"/></svg>