<svg width="59" height="48" viewBox="0 0 59 48" fill="none" xmlns="http://www.w3.org/2000/svg">
<g clip-path="url(#clip0_630_928)">
<path d="M29.502 47.5032C45.5193 47.5032 58.5039 36.9812 58.5039 24.0016C58.5039 11.022 45.5193 0.5 29.502 0.5C13.4846 0.5 0.5 11.022 0.5 24.0016C0.5 36.9812 13.4846 47.5032 29.502 47.5032Z" fill="white"/>
<path d="M45.644 30.6648H44.1113C42.7862 30.6648 41.7119 31.5353 41.7119 32.6092V35.7284C41.7119 36.8023 42.7862 37.6728 44.1113 37.6728H45.644C46.9692 37.6728 48.0434 36.8023 48.0434 35.7284V32.6092C48.0434 31.5353 46.9692 30.6648 45.644 30.6648Z" fill="#0077C8"/>
<path d="M14.5063 30.6648H12.9736C11.6485 30.6648 10.5742 31.5353 10.5742 32.6092V35.7284C10.5742 36.8023 11.6485 37.6728 12.9736 37.6728H14.5063C15.8315 37.6728 16.9057 36.8023 16.9057 35.7284V32.6092C16.9057 31.5353 15.8315 30.6648 14.5063 30.6648Z" fill="#0077C8"/>
<path d="M46.5856 19.056L47.9961 18.5611L47.6257 17.6448L45.9434 18.0279L46.5856 19.056Z" fill="#0077C8"/>
<path d="M49.9897 16.237C49.4761 16.2063 48.9598 16.2364 48.457 16.3264C48.1103 16.3966 47.4839 16.6457 47.3775 16.9649C47.0899 17.8397 47.4011 18.6156 47.9961 18.9061C48.5161 19.1615 49.4105 19.0881 49.966 18.9923C50.8998 18.8359 51.7863 18.3889 51.9912 17.5875C52.1685 16.8851 51.8139 16.4062 50.9392 16.3104C50.6476 16.2785 50.3206 16.2498 49.9897 16.237Z" fill="#0077C8"/>
<path d="M12.2215 19.056L10.811 18.5611L11.1775 17.6448L12.8638 18.0279L12.2215 19.056Z" fill="#0077C8"/>
<path d="M47.4486 19.7777C46.3139 18.6603 45.3565 16.6233 44.0366 14.2C42.7168 11.7768 40.6246 10.7072 38.2331 10.5603C36.0701 10.4294 22.7333 10.4294 20.5703 10.5603C18.1788 10.7072 16.0827 11.7736 14.7668 14.2C13.4508 16.6265 12.4895 18.6698 11.3548 19.7777C10.2201 20.8856 8.5968 23.51 8.84107 27.1976C9.08535 30.8852 8.13188 33.1137 16.981 33.0083C24.727 32.9221 34.0765 32.9221 41.8224 33.0083C50.6833 33.1041 49.7259 30.8724 49.9623 27.188C50.1987 23.5036 48.5873 20.892 47.4486 19.7777Z" fill="#0077C8"/>
<path d="M8.81345 16.2369C9.32698 16.2059 9.84333 16.236 10.3461 16.3263C10.6928 16.3965 11.3193 16.6456 11.4256 16.9648C11.7133 17.8396 11.402 18.6155 10.8071 18.906C10.2909 19.1614 9.39262 19.088 8.83709 18.9922C7.90332 18.8358 7.01683 18.3888 6.81196 17.5874C6.63466 16.885 6.98926 16.4061 7.86392 16.3103C8.15548 16.2784 8.4825 16.2497 8.81345 16.2369Z" fill="#0077C8"/>
<path d="M42.9803 16.0868C42.5148 15.1255 41.9383 14.2019 41.2586 13.3283C40.1672 12.0513 38.5794 11.6873 37.094 11.4925C36.5188 11.4159 22.2877 11.4159 21.7085 11.4925C20.2232 11.6873 18.6354 12.0449 17.544 13.3283C16.8642 14.2019 16.2877 15.1255 15.8222 16.0868C15.3376 17 14.8057 18.0025 14.7979 19.1263C14.7979 19.4743 14.9515 19.9692 15.3022 20.0458C16.2011 20.1886 17.1168 20.2507 18.0326 20.231C19.3485 20.2757 20.6605 20.2949 21.9725 20.3076C24.2971 20.33 34.4976 20.33 36.8222 20.3076C38.1381 20.3076 39.4541 20.2757 40.7621 20.231C41.6779 20.2507 42.5935 20.1886 43.4925 20.0458C43.8432 19.9692 43.9968 19.4743 43.9968 19.1263C43.985 18.0025 43.4649 17 42.9803 16.0868Z" fill="white"/>
<path d="M34.8013 23.3313L35.1204 28.0948H35.6878V23.3313H34.8013Z" fill="#ECD0AD"/>
<path d="M34.3955 28.0182L34.4664 28.2513L35.5263 28.1363L35.5736 28.2225H35.6878V28.1204V28.0182V27.7883L34.3955 28.0182Z" fill="#212121"/>
<path d="M37.0862 23.3313L36.7671 28.0948H36.1997V23.3313H37.0862Z" fill="#ECD0AD"/>
<path d="M37.492 28.0182L37.4211 28.2513L36.3573 28.1363L36.31 28.2225H36.1997V28.1204V28.0182V27.7883L37.492 28.0182Z" fill="#212121"/>
<path d="M38.6465 24.7455H33.497L33.2212 22.7437H38.9026L38.6465 24.7455Z" fill="#080908"/>
<path d="M36.3221 20.6845C36.3221 20.7124 36.3084 20.7392 36.284 20.759C36.2596 20.7787 36.2266 20.7898 36.1921 20.7898C36.1749 20.7903 36.1577 20.7878 36.1417 20.7827C36.1257 20.7776 36.1111 20.7698 36.0989 20.76C36.0868 20.7501 36.0772 20.7383 36.0709 20.7253C36.0645 20.7123 36.0615 20.6984 36.0621 20.6845C36.0621 20.6565 36.0758 20.6297 36.1002 20.61C36.1245 20.5902 36.1576 20.5791 36.1921 20.5791C36.2266 20.5791 36.2596 20.5902 36.284 20.61C36.3084 20.6297 36.3221 20.6565 36.3221 20.6845Z" fill="#919192"/>
<path d="M36.192 21.8084C36.2638 21.8084 36.322 21.7612 36.322 21.703C36.322 21.6448 36.2638 21.5977 36.192 21.5977C36.1202 21.5977 36.062 21.6448 36.062 21.703C36.062 21.7612 36.1202 21.8084 36.192 21.8084Z" fill="#919192"/>
<path d="M22.6976 22.1211C26.1574 22.1211 28.9621 19.1265 28.9621 15.4324C28.9621 11.7383 26.1574 8.74365 22.6976 8.74365C19.2378 8.74365 16.4331 11.7383 16.4331 15.4324C16.4331 19.1265 19.2378 22.1211 22.6976 22.1211Z" fill="#0077C8"/>
<path d="M36.3182 22.1211C39.778 22.1211 42.5827 19.1265 42.5827 15.4324C42.5827 11.7383 39.778 8.74365 36.3182 8.74365C32.8584 8.74365 30.0537 11.7383 30.0537 15.4324C30.0537 19.1265 32.8584 22.1211 36.3182 22.1211Z" fill="#0077C8"/>
<path d="M22.6189 22.118C25.7262 22.118 28.2452 19.4278 28.2452 16.1093C28.2452 12.7908 25.7262 10.1006 22.6189 10.1006C19.5116 10.1006 16.9927 12.7908 16.9927 16.1093C16.9927 19.4278 19.5116 22.118 22.6189 22.118Z" fill="white"/>
<path d="M36.0501 22.118C39.1574 22.118 41.6763 19.4278 41.6763 16.1093C41.6763 12.7908 39.1574 10.1006 36.0501 10.1006C32.9428 10.1006 30.4238 12.7908 30.4238 16.1093C30.4238 19.4278 32.9428 22.118 36.0501 22.118Z" fill="white"/>
<path d="M22.5006 15.809C24.0543 15.809 25.3137 14.4639 25.3137 12.8046C25.3137 11.1454 24.0543 9.80029 22.5006 9.80029C20.947 9.80029 19.6875 11.1454 19.6875 12.8046C19.6875 14.4639 20.947 15.809 22.5006 15.809Z" fill="#0077C8"/>
<path d="M36.2946 15.7675C37.8482 15.7675 39.1077 14.4224 39.1077 12.7631C39.1077 11.1039 37.8482 9.75879 36.2946 9.75879C34.7409 9.75879 33.4814 11.1039 33.4814 12.7631C33.4814 14.4224 34.7409 15.7675 36.2946 15.7675Z" fill="#0077C8"/>
<path d="M21.7874 12.2525C22.8167 12.2525 23.651 11.7708 23.651 11.1765C23.651 10.5823 22.8167 10.1006 21.7874 10.1006C20.7582 10.1006 19.9238 10.5823 19.9238 11.1765C19.9238 11.7708 20.7582 12.2525 21.7874 12.2525Z" fill="white"/>
<path d="M35.5736 12.0481C36.6028 12.0481 37.4372 11.5664 37.4372 10.9722C37.4372 10.378 36.6028 9.89624 35.5736 9.89624C34.5443 9.89624 33.71 10.378 33.71 10.9722C33.71 11.5664 34.5443 12.0481 35.5736 12.0481Z" fill="white"/>
<path d="M13.7499 26.8591C14.9728 26.8591 15.9641 26.0558 15.9641 25.0648C15.9641 24.0738 14.9728 23.2705 13.7499 23.2705C12.527 23.2705 11.5356 24.0738 11.5356 25.0648C11.5356 26.0558 12.527 26.8591 13.7499 26.8591Z" fill="white"/>
<path d="M45.0766 26.8591C46.2995 26.8591 47.2908 26.0558 47.2908 25.0648C47.2908 24.0738 46.2995 23.2705 45.0766 23.2705C43.8537 23.2705 42.8623 24.0738 42.8623 25.0648C42.8623 26.0558 43.8537 26.8591 45.0766 26.8591Z" fill="white"/>
<path d="M29.1592 25.7288C31.0545 25.7288 32.5909 25.3586 32.5909 24.9019C32.5909 24.4452 31.0545 24.075 29.1592 24.075C27.264 24.075 25.7275 24.4452 25.7275 24.9019C25.7275 25.3586 27.264 25.7288 29.1592 25.7288Z" fill="white"/>
<path d="M18.147 26.8942C19.6814 28.0489 21.4816 28.9473 23.4448 29.5379C25.4079 30.1286 27.4954 30.4 29.588 30.3365C31.6806 30.273 33.7372 29.876 35.6404 29.1681C37.5436 28.4603 39.2559 27.4554 40.6795 26.2109" stroke="white" stroke-width="1.52" stroke-miterlimit="10"/>
</g>
<defs>
<clipPath id="clip0_630_928">
<rect width="58" height="47" fill="white" transform="translate(0.5 0.5)"/>
</clipPath>
</defs>
</svg>
