<svg width="38" height="33" viewBox="0 0 38 33" fill="none" xmlns="http://www.w3.org/2000/svg">
<path d="M16.8304 30.4639C13.9915 29.7542 12 27.2035 12 24.2773V22.5636C12 20.0637 9.97342 18.0371 7.47351 18.0371H5.50696C4.23217 18.0371 3.24039 16.929 3.38116 15.662L4.59852 4.70582C4.76733 3.18652 6.05152 2.03711 7.58017 2.03711L29 2.03711L29 18.0371H25.7891C21.4873 18.0371 18 21.5244 18 25.8262V29.5507C18 30.1631 17.4245 30.6125 16.8304 30.4639Z" stroke="black" stroke-width="2"/>
<path d="M34 17.0371C34 17.5894 33.5523 18.0371 33 18.0371H29V9.03711L29 4.03711V2.03711H33C33.5523 2.03711 34 2.48482 34 3.03711V17.0371Z" fill="#C7C9CB" stroke="black" stroke-width="2"/>
</svg>
