<svg width="38" height="33" viewBox="0 0 38 33" fill="none" xmlns="http://www.w3.org/2000/svg">
<g clip-path="url(#clip0_481_575)">
<path d="M21.1696 1.61029C24.0085 2.32 26 4.87071 26 7.79692V9.51062C26 12.0105 28.0266 14.0371 30.5265 14.0371H32.493C33.7678 14.0371 34.7596 15.1452 34.6188 16.4122L33.4015 27.3684C33.2327 28.8877 31.9485 30.0371 30.4198 30.0371H9V14.0371H12.2109C16.5127 14.0371 20 10.5498 20 6.24803V2.52351C20 1.91111 20.5755 1.46176 21.1696 1.61029Z" stroke="black" stroke-width="2"/>
<path d="M4 15.0371C4 14.4848 4.44772 14.0371 5 14.0371H9V23.0371V28.0371V30.0371H5C4.44771 30.0371 4 29.5894 4 29.0371V15.0371Z" fill="#C7C9CB" stroke="black" stroke-width="2"/>
</g>
<defs>
<clipPath id="clip0_481_575">
<rect width="38" height="32" fill="white" transform="translate(0 0.0371094)"/>
</clipPath>
</defs>
</svg>
